<svg xmlns="http://www.w3.org/2000/svg" viewBox="0 0 217.8 158.84"><defs><style>.cls-1{fill:#e7ccaf;}.cls-2{fill:#bc9a79;}.cls-3{fill:#f9e2ed;}.cls-4{fill:#deb9cd;}.cls-5,.cls-6{fill:none;}.cls-5,.cls-6,.cls-7,.cls-8{stroke:#1d1d1b;stroke-miterlimit:10;}.cls-5{stroke-width:2px;}.cls-7,.cls-8{fill:#1d1d1b;}.cls-8{stroke-width:0.75px;}</style></defs><g id="Calque_2" data-name="Calque 2"><g id="Calque_1-2" data-name="Calque 1"><path class="cls-1" d="M80.8,121.71c7.06,3.7,22.52,18.71,17.17,26.84-2.62,4-19.15,9.29-49.29,9.29-6.24,0-49.13,1-47.49-15.36C1.44,140,14.06,125,16.44,122.61s25-4.18,29.28-4.18S77.47,120,80.8,121.71Z"/><path class="cls-1" d="M18.07,39.22C11,35.52-3,20.34,2.33,12.21,5,8.22,21.4,1,51.54,1c6.23,0,49.21.93,47.57,17.27-.25,2.53-11.48,17.92-13.86,20.3s-26.39,3.75-30.67,3.75S21.4,41,18.07,39.22Z"/><path class="cls-2" d="M2.92,20.5c.88,3.85,8.34,17.37,15.86,19.27s40.28,2.95,35.8,2.56C39,41,24.18,32.79,17.52,26.92A95,95,0,0,1,2.92,20.5Z"/><path class="cls-2" d="M14,125.21c-2.44,2.27-18.7,20.58-11.83,24.17,18.61,9.73,56.9,8.49,52.42,8.1C39,156.13,24,138.14,21.2,126.45,14.54,124.39,14,125.21,14,125.21Z"/><ellipse class="cls-2" cx="50.15" cy="15.59" rx="10.79" ry="3.38"/><path class="cls-3" d="M16.44,39.22c-2.12,13-3.8,82.41,0,85,13.18,9,41.9,10.85,67.26,0,0,0,8.43-65.76,0-85C54.58,47.21,16.44,39.22,16.44,39.22Z"/><path class="cls-4" d="M16.44,39.22c-4.55,15.64-4.24,59.13,0,85,4.76,2.23,24.72,6.92,24.72,6.92S8.71,91.31,24.87,40.9Z"/><path class="cls-5" d="M99.11,15.59c0-8.06-22-14.59-49-14.59S1,7.53,1,15.59"/><path class="cls-5" d="M99.11,15.59c0,8.06-22,14.59-49,14.59S1,23.65,1,15.59"/><path class="cls-5" d="M16.44,39.22C14.11,37.53,1,25,1,15.59"/><path class="cls-5" d="M16.44,39.22c2.32,1.69,18.39,3.38,33.62,3.38"/><path class="cls-5" d="M99.11,15.59C99.11,25,86,37.53,83.68,39.22S65.28,42.6,50.06,42.6"/><path class="cls-5" d="M16.44,39.22c-4.87,16.49-3.6,72.3,0,85"/><path class="cls-5" d="M83.7,39.22c4.86,16.49,3.59,72.3,0,85"/><path class="cls-5" d="M1,148c6.87,4.8,23.52,9.88,49.06,9.88s42.18-5.08,49.05-9.88c0-9.36-13-25.23-15.43-23.63-2.22,1.49-18.4,7.83-33.62,7.83s-31.4-6.34-33.62-7.83C14.05,122.73,1,138.6,1,148Z"/><path class="cls-5" d="M61.42,15.59c0-1.87-5.09-3.38-11.36-3.38s-11.37,1.51-11.37,3.38"/><path class="cls-5" d="M61.42,15.59c0,1.87-5.09,3.38-11.36,3.38s-11.37-1.51-11.37-3.38"/><path class="cls-6" d="M15.87,44.61C18.2,46.3,34,48,49.18,48"/><path class="cls-6" d="M49.18,48c15.22,0,23.12-.47,25.73-1.5"/><path class="cls-6" d="M15.19,50.55c2.33,1.69,18.76,3.38,34,3.38"/><path class="cls-6" d="M49.18,53.93c6.82,0,13.21-.29,19.06-.81"/><path class="cls-6" d="M14.55,56.58c2.32,1.69,17.84,3.32,33.07,3.32"/><path class="cls-6" d="M47.62,59.9c4.88,0,9.34-.17,13.92-.46"/><path class="cls-6" d="M20.64,64.88c6.62.92,23.87,2,33.57,1.15"/><path class="cls-6" d="M37.75,102.56c8.37,1.78,10.69,2,25.92,2"/><path class="cls-6" d="M32.09,107.1c5.52,2.4,31.47,4.43,46.49,2.63"/><path class="cls-6" d="M30.86,113c9.1,3.28,38.73,5.31,55,3.3"/><path class="cls-6" d="M45.08,121.71c9.92,2.23,27.88,2.44,39.81.39"/><path class="cls-6" d="M81.24,63.91c3.85-.58,5.3-1,6-1.52"/><path class="cls-6" d="M67,78.28c9.56-.85,18.88-2.07,20.24-3.06"/><path class="cls-6" d="M59.25,85.89c12.48-.77,26.32-2.38,28-3.62"/><path class="cls-6" d="M73.93,92c6-.73,12.37-1.66,13.35-2.38"/><path class="cls-6" d="M32.18,72.23c4.32.31,9.73.5,14.45.5"/><path class="cls-6" d="M14,84c1,.75,4.37,1.45,9.49,2"/><path class="cls-6" d="M14,90.91c.83.61,4,1.42,7.65,1.94"/><path class="cls-6" d="M74.32,71.36c6.36-.57,12.3-1.4,13.31-2.14"/><path class="cls-6" d="M14.43,98.35S57.73,66.19,80.8,40.09"/><path class="cls-6" d="M14.76,104.52S71.88,63.81,85.25,42.33"/><path class="cls-6" d="M15.56,111.63S72.68,70.92,86.05,49.44"/><path class="cls-6" d="M16.18,118.91S62.56,85.85,81.64,63.52a60.22,60.22,0,0,0,5.26-7"/><path class="cls-6" d="M58.64,85.72c10.89,5,22.29,8.92,28.65,10.37"/><path class="cls-6" d="M14.43,60.75c7.4,4.9,16.83,11.36,26.6,16.51"/><path class="cls-6" d="M22.69,114.19c7.4,4.9,19.08,12.54,28.85,17.69"/><path class="cls-6" d="M27.73,110.69c7.77,6,22.55,14.08,34.41,20.19"/><path class="cls-6" d="M54.53,89.21c10.89,5,26,10.14,32.37,11.59"/><path class="cls-6" d="M13.9,66.46A263.71,263.71,0,0,0,37,80.64"/><path class="cls-6" d="M50.28,92.73c10.89,5,30.1,12.07,36.46,13.52"/><path class="cls-6" d="M14,73.13A203.14,203.14,0,0,0,32.47,84.3"/><path class="cls-6" d="M45.08,96.94c10.9,5,33.79,13.48,41.21,14.91"/><path class="cls-6" d="M14,80.3c4.88,3.13,8.1,5.15,13.46,8"/><path class="cls-6" d="M18.09,117.16a261.07,261.07,0,0,0,23.07,14"/><path class="cls-5" d="M85.06,115.73c13.21-2.91,39.85-9.52,39.53,15.86s19.35,17.51,25.38,8.89"/><path class="cls-7" d="M100.9,37.72a8.22,8.22,0,0,1,2.23-1.55c1.05-.55,2.3-1.12,3.74-1.72s3-1.19,4.79-1.77,3.56-1.15,5.44-1.73c.33-1.72.65-3.16,1-4.32a7.44,7.44,0,0,1,.9-2.3,1.24,1.24,0,0,1,.65-.43h.14a1,1,0,0,1,.86.65,4,4,0,0,1,.44,1,.75.75,0,0,1,.07.22c0,.14-.1.22-.29.22s-.46-.08-.5-.22a2.42,2.42,0,0,0-.29-.72,1.31,1.31,0,0,0-.36-.43q-.43.21-.9,1.8a39.91,39.91,0,0,0-1,4.32c2-.58,4-1.13,6-1.66s3.93-1,5.73-1.37,3.41-.68,4.82-.9a24.7,24.7,0,0,1,3.42-.32,2.56,2.56,0,0,1,1.37.29,1,1,0,0,1,.14.21.59.59,0,0,1,.08.22,1.1,1.1,0,0,1-.29.58.34.34,0,0,1-.22.07.49.49,0,0,1-.29-.07.82.82,0,0,1-.07-.29.75.75,0,0,1,.07-.22,2.1,2.1,0,0,0-.86-.14,20.86,20.86,0,0,0-3.2.36c-1.42.24-3,.56-4.83,1s-3.74.88-5.83,1.4-4.17,1.11-6.23,1.73q-.8,4.68-1.51,11.45t-1.08,14.4q2.73-.93,5.51-1.58a20,20,0,0,1,4.43-.65,3.26,3.26,0,0,1,1.36.21.29.29,0,0,1,.22.29.75.75,0,0,1-.07.22.63.63,0,0,1-.36.21.21.21,0,0,1-.15-.07,2.25,2.25,0,0,0-1-.14,20.82,20.82,0,0,0-4.36.65q-2.85.64-5.65,1.58-.15,4.47-.15,8.86,0,2.73.11,7.63a79.73,79.73,0,0,0,1,10.8.32.32,0,0,1-.36.36c-.25,0-.36-.1-.36-.29a81.35,81.35,0,0,1-1.08-10.66q-.15-4.82-.15-7.49c0-3,.07-5.95.22-8.92a28.22,28.22,0,0,0-3.21,1.22A10.34,10.34,0,0,0,109,60.91a.34.34,0,0,1-.22.07.39.39,0,0,1-.28-.15q-.15-.13-.15-.21c0-.1.07-.19.22-.29a9,9,0,0,1,2.19-1.26c1-.46,2.22-.92,3.57-1.4q.36-7.5,1.08-14.3T117,31.82c-1.82.53-3.58,1.08-5.25,1.65s-3.22,1.14-4.61,1.7a34.68,34.68,0,0,0-3.57,1.62,9.2,9.2,0,0,0-2.12,1.43c-.1.1-.17.15-.22.15a.55.55,0,0,1-.43-.43S100.8,37.82,100.9,37.72Z"/><path class="cls-7" d="M128.11,61.34c.1-1.16.19-2,.29-2.52,0-.19.07-.32.21-.36a.75.75,0,0,0,.22.07c.19,0,.29.14.29.43a22.44,22.44,0,0,0-.36,2.77c-.1,1.18-.15,2.39-.15,3.64a22.42,22.42,0,0,0,.26,3.49,5.75,5.75,0,0,0,.75,2.34.93.93,0,0,0,.58.43h.07c.29,0,.64-.22,1-.68a17.28,17.28,0,0,0,1.37-1.8,26.45,26.45,0,0,0,1.48-2.45c.48-.89.89-1.71,1.22-2.48.05-.19.15-.29.29-.29a.17.17,0,0,1,.14.07c.2,0,.29.14.29.29a.25.25,0,0,1-.07.21c-.05,0-.26.5-.65,1.34a26,26,0,0,1-1.44,2.7,20,20,0,0,1-1.87,2.63,2.69,2.69,0,0,1-1.87,1.18h-.15a1.73,1.73,0,0,1-1-.72,5.67,5.67,0,0,1-.9-2.7,27.58,27.58,0,0,1-.26-3.81A32.58,32.58,0,0,1,128.11,61.34Zm.65-5.62a4.11,4.11,0,0,1,.07-.65c0-.28.11-.6.18-.93a7.13,7.13,0,0,1,.25-.9,5,5,0,0,1,.22-.54c.05-.19.14-.29.29-.29a.21.21,0,0,1,.14.07c.19.1.29.22.29.36a.26.26,0,0,1-.07.15,1.2,1.2,0,0,0-.18.46c-.08.27-.15.54-.22.83s-.13.58-.18.86a4.13,4.13,0,0,0-.07.58c0,.29-.12.43-.36.43S128.76,56,128.76,55.72Z"/><path class="cls-7" d="M135.45,64.72c.05-3.46.29-7,.72-10.8s1-7.31,1.7-10.69a73.16,73.16,0,0,1,2.44-9.14,21.28,21.28,0,0,1,3.06-6.16,5.33,5.33,0,0,1,1.41-1.44,3.7,3.7,0,0,1,1.83-.36,2.45,2.45,0,0,1,1.23.61,3.32,3.32,0,0,1,.86,2.13,10.77,10.77,0,0,1,.07,1.36,23.15,23.15,0,0,1-.25,3,30.76,30.76,0,0,1-1,4.53q-.79,2.67-1.91,5.44a41.31,41.31,0,0,1-2.52,5.22,30.7,30.7,0,0,1-3,4.35,10.66,10.66,0,0,1-3.24,2.77q-.44,3.9-.54,6.88c-.07,2-.11,3.69-.11,5.08,0,1,0,2.31.08,3.92a40.11,40.11,0,0,0,.5,5.19A19.18,19.18,0,0,0,138,81.14q1.08,2.73,2.88,2.88H141q4,0,10.51-18.94l.29-.86c0-.15.19-.22.43-.22s.29.14.29.29a.21.21,0,0,1-.07.14l-.29.87q-1.08,3.17-2.38,6.62a58.27,58.27,0,0,1-2.77,6.3,27.81,27.81,0,0,1-3,4.72,4.12,4.12,0,0,1-3,1.87.12.12,0,0,1-.11,0,.16.16,0,0,0-.11,0c-1.44-.15-2.61-1.25-3.53-3.32A22.24,22.24,0,0,1,135.81,75c-.24-2.6-.36-5.14-.36-7.64Zm1.44-10.15a15.26,15.26,0,0,0,4.47-4.79,43.24,43.24,0,0,0,3.74-7.23,46,46,0,0,0,2.31-7.06,24.06,24.06,0,0,0,.72-5A6.37,6.37,0,0,0,148,29q-.21-2-1.44-2.16a2.4,2.4,0,0,0-1.47.4A5.82,5.82,0,0,0,144,28.36a17.85,17.85,0,0,0-2.3,4.32,54.6,54.6,0,0,0-2,6.19c-.6,2.31-1.14,4.8-1.62,7.49S137.18,51.79,136.89,54.57Z"/><path class="cls-7" d="M167.13,67.31a18.1,18.1,0,0,1,.47-3.38,14,14,0,0,1,1-2.92,3.66,3.66,0,0,1,1.4-1.69,2.53,2.53,0,0,1,.65-.14,1.59,1.59,0,0,1,1.15.5.36.36,0,0,1,0,.58.27.27,0,0,1-.21.07.41.41,0,0,1-.29-.07.83.83,0,0,0-.65-.36.31.31,0,0,0-.18,0,.12.12,0,0,1-.11,0,2.8,2.8,0,0,0-1.19,1.48,14.88,14.88,0,0,0-.89,2.69,15.44,15.44,0,0,0-.44,2.63c0,.75-.07,1.29-.07,1.62a12.33,12.33,0,0,0,.15,2,7,7,0,0,0,.46,1.54,1.45,1.45,0,0,0,1.12.91,1.88,1.88,0,0,0,1.73-1A8.29,8.29,0,0,0,172.46,69a3.55,3.55,0,0,1-1.26-2.27,16.24,16.24,0,0,1-.18-2,5.52,5.52,0,0,1,.29-1.87c.14-.53.33-.84.58-.93a1.55,1.55,0,0,1,.57-.15,1.08,1.08,0,0,1,.94.72,5.53,5.53,0,0,1,.43,2.38c0,.09,0,.45,0,1.08a15.55,15.55,0,0,1-.46,2.73,1.93,1.93,0,0,0,.93.22,6.92,6.92,0,0,0,.94-.14,8.91,8.91,0,0,0,3.31-2,10.74,10.74,0,0,0,2.23-2.59c0-.15.22-.22.51-.22a.28.28,0,0,1,.21.29.46.46,0,0,1-.07.21,11.06,11.06,0,0,1-2.34,2.81,9.46,9.46,0,0,1-3.64,2.24l-.61.1a3.27,3.27,0,0,1-1.69-.18,13,13,0,0,1-1.22,2.7,2.65,2.65,0,0,1-2.45,1.33,2.22,2.22,0,0,1-1.23-.68,4.58,4.58,0,0,1-1-2.34,10.79,10.79,0,0,1-.14-1.8A13.24,13.24,0,0,1,167.13,67.31Zm4.68-1.51a4.4,4.4,0,0,0,.87,2.45,14.27,14.27,0,0,0,.39-2.41c0-.55,0-.88,0-1a4.12,4.12,0,0,0-.36-2q-.15-.36-.36-.36c-.14,0-.29.22-.43.65a4.58,4.58,0,0,0-.22,1.51A10.46,10.46,0,0,0,171.81,65.8Z"/><path class="cls-7" d="M181.68,60.76c.29,0,.43.1.43.29a.47.47,0,0,1-.22.43,3.83,3.83,0,0,0-.25,1.23,22.16,22.16,0,0,0-.11,2.3c0,.86,0,1.73.11,2.59a9.48,9.48,0,0,0,.4,2.16l.29.43s0,.07.07.07c.24,0,.6-.54,1.08-1.47s1-2,1.51-3.28,1-2.49,1.51-3.74.87-2.21,1.15-2.88l.44-1.3c0-.19.14-.29.28-.29a.22.22,0,0,1,.15.08.39.39,0,0,1,.29.43c-.25,1.44-.45,3.06-.62,4.86s-.26,3.22-.28,4.25,0,1.79,0,2.26c0,.92,0,1.83.11,2.74s.22,1.39.47,1.44h.07q.49,0,1.83-2.37a51.42,51.42,0,0,0,3-6.77c0-.15.22-.22.51-.22s.28.14.28.29a.25.25,0,0,1-.07.21c-.33.92-.74,1.93-1.22,3s-1,2.14-1.48,3.1a17.94,17.94,0,0,1-1.51,2.44c-.5.68-1,1-1.4,1h-.15c-.43-.1-.74-.61-.93-1.55a16.64,16.64,0,0,1-.29-3.42c0-1.34.06-2.76.18-4.24s.25-2.84.39-4c-1.49,3.84-2.61,6.51-3.38,8s-1.39,2.23-1.87,2.23h-.07a1.08,1.08,0,0,1-.8-.76,7.49,7.49,0,0,1-.46-1.62,11.92,11.92,0,0,1-.22-1.87c0-.62,0-1.15,0-1.59v-1C180.81,62,181.1,60.86,181.68,60.76Z"/><path class="cls-7" d="M148.74,134.92a16.6,16.6,0,0,1,.65-2.84,6.69,6.69,0,0,1,.86-1.91c.24-.38.5-.57.79-.57h.15a.6.6,0,0,1,.5.36,3,3,0,0,1,.29,1.58c0,.1,0,.4,0,.9a23.51,23.51,0,0,1-.29,2.38c-.16,1.08-.38,2.16-.64,3.24s-.52,1.95-.76,2.62a3,3,0,0,0,2.66,1.23,4.42,4.42,0,0,0,.87-.07.29.29,0,0,1,.29.14.34.34,0,0,1,.07.22v.14a9.77,9.77,0,0,0-.47,2.16c-.17,1.15-.31,2.39-.43,3.71s-.18,2.55-.18,3.71c0,.19,0,.68,0,1.47a5.37,5.37,0,0,0,.46,2.13,1,1,0,0,0,.44.5c.57,0,1.17-.7,1.79-2.09a34.68,34.68,0,0,0,1.7-4.75c.5-1.78.94-3.49,1.33-5.15a30.4,30.4,0,0,0,.65-3.35.4.4,0,0,1,.36-.28h.07a.34.34,0,0,1,.36.21.53.53,0,0,0-.07.22q-.08.64-.54,2.91c-.32,1.52-.72,3.15-1.23,4.9s-1,3.4-1.65,4.93a6.13,6.13,0,0,1-1.91,3,2.18,2.18,0,0,1-1,.22,1.53,1.53,0,0,1-.94-.94,5.7,5.7,0,0,1-.46-2.23c0-.86,0-1.53,0-2,0-.77,0-1.68.07-2.74s.16-2.2.33-3.42.32-2.15.46-2.77a6.81,6.81,0,0,1-2.19-.33,2.93,2.93,0,0,1-1.62-1.47,4.72,4.72,0,0,1-.79-2.2c0-.69-.07-1.23-.07-1.62A15.18,15.18,0,0,1,148.74,134.92Zm.79,4.11c.1.38.17.65.22.79a23.81,23.81,0,0,0,.75-2.84c.22-1,.39-2,.51-3s.19-1.63.21-2,0-.62,0-.72a1.33,1.33,0,0,0-.22-.93c-.14,0-.35.36-.61.93a11.28,11.28,0,0,0-.68,2.16,14.18,14.18,0,0,0-.36,2.27c0,.65-.08,1.09-.08,1.33A9.26,9.26,0,0,0,149.53,139Z"/><path class="cls-7" d="M160.47,137.16c.29,0,.44.09.44.28a.51.51,0,0,1-.22.44,3.47,3.47,0,0,0-.25,1.22,22.31,22.31,0,0,0-.11,2.3c0,.87,0,1.73.11,2.6a9.53,9.53,0,0,0,.39,2.16l.29.43a.06.06,0,0,0,.07.07c.24,0,.6-.54,1.08-1.48s1-2,1.52-3.27,1-2.5,1.51-3.75.86-2.2,1.15-2.88l.43-1.29c.05-.19.15-.29.29-.29a.17.17,0,0,1,.14.07c.2,0,.29.19.29.43-.24,1.44-.44,3.06-.61,4.86s-.26,3.22-.29,4.25,0,1.79,0,2.27c0,.91,0,1.82.1,2.74s.23,1.39.47,1.44h.07c.34,0,.95-.8,1.84-2.38a52.16,52.16,0,0,0,3-6.77c.05-.14.21-.21.5-.21s.29.14.29.28a.29.29,0,0,1-.07.22c-.34.91-.75,1.92-1.23,3s-1,2.14-1.47,3.1a19.16,19.16,0,0,1-1.51,2.45c-.51.67-1,1-1.41,1h-.14c-.43-.1-.75-.62-.94-1.55a17.52,17.52,0,0,1-.29-3.42c0-1.35.06-2.76.18-4.25s.26-2.83.4-4q-2.23,5.76-3.38,8c-.77,1.49-1.4,2.23-1.88,2.23h-.07a1.08,1.08,0,0,1-.79-.75,8.47,8.47,0,0,1-.47-1.62,12,12,0,0,1-.21-1.88c0-.62,0-1.15,0-1.58v-1C159.61,138.4,159.9,137.25,160.47,137.16Z"/><path class="cls-8" d="M172.21,144.28q.07-5.9.65-11.73a.21.21,0,0,1-.07-.15.21.21,0,0,1,.07-.14c.09-.77.27-2,.54-3.85s.62-3.81,1.08-6,1-4.5,1.62-6.88a49.33,49.33,0,0,1,2.16-6.52,21.12,21.12,0,0,1,2.7-4.86,4.1,4.1,0,0,1,3.2-1.9,3.5,3.5,0,0,1,.79.14,2.29,2.29,0,0,1,1.3,1.8,7.44,7.44,0,0,1,.07,1.08,22,22,0,0,1-1,5.62,59.63,59.63,0,0,1-3.06,8,79.24,79.24,0,0,1-4.36,8.21,25.33,25.33,0,0,1-4.28,5.54,98.33,98.33,0,0,0-.65,11.23q0,3.24.22,6.41a55.18,55.18,0,0,1,.86-5.54,52.14,52.14,0,0,1,1.33-5.22,29.26,29.26,0,0,1,1.66-4.22,7,7,0,0,1,1.76-2.44,2,2,0,0,1,1-.36,1,1,0,0,1,.43.07,1.8,1.8,0,0,1,1.12.9,3.89,3.89,0,0,1,.47,2.05,10.12,10.12,0,0,1-.08,1.15,20.25,20.25,0,0,1-1.18,4.9,26.82,26.82,0,0,1-2.2,4.68,22.51,22.51,0,0,0,4.61-1.69,6.77,6.77,0,0,0,3.45-3.93q.08-.21.51-.21c.19,0,.29.14.29.28a.29.29,0,0,1-.08.22,7.66,7.66,0,0,1-1.76,2.74,11.48,11.48,0,0,1-5.08,2.88q-1.36.36-2.52.57a8.25,8.25,0,0,1-1.18,1.33,2.33,2.33,0,0,1-1.19.62c-.24,0-.48,0-.72,0a.75.75,0,0,1-.58-.4,34.09,34.09,0,0,0-.43,5.19c0,.62,0,1.2.07,1.73,0,.23-.14.36-.43.36-.14,0-.26-.1-.36-.29a71.78,71.78,0,0,1-.72-10.3Zm1.44-12.81a31.49,31.49,0,0,0,4.1-5.69,74.49,74.49,0,0,0,4.07-7.85,58.88,58.88,0,0,0,2.81-7.41,19.66,19.66,0,0,0,1-5.12,7.44,7.44,0,0,0-.07-1.08,1.45,1.45,0,0,0-.86-1.22,1.5,1.5,0,0,0-.58-.07,2.44,2.44,0,0,0-1.58.65,11.19,11.19,0,0,0-2.78,3.81,48.07,48.07,0,0,0-2.52,6.34,73.11,73.11,0,0,0-2.08,8.21Q174.22,126.57,173.65,131.47Zm1.66,15.41a1.64,1.64,0,0,1,.64-.18,6.78,6.78,0,0,0,.87-.18.93.93,0,0,0,.25,0,.93.93,0,0,1,.25,0,24.28,24.28,0,0,0,2.31-4.68,21.79,21.79,0,0,0,1.36-5.18V136a14.33,14.33,0,0,0-.1-1.58,1.37,1.37,0,0,0-.9-1.22,1.1,1.1,0,0,0-.8.28,5.32,5.32,0,0,0-1.44,1.91,24.81,24.81,0,0,0-1.36,3.31c-.44,1.28-.84,2.67-1.23,4.18s-.69,3.06-.93,4.64A2.2,2.2,0,0,1,175.31,146.88Zm-.58,1.36h.07a.42.42,0,0,0,.29.08h.22a3.28,3.28,0,0,0,1.36-1,8.19,8.19,0,0,0-1.15.21c-.57.2-.86.39-.86.58A.17.17,0,0,0,174.73,148.24Z"/><path class="cls-7" d="M185.75,143.78a24.13,24.13,0,0,1,.68-3.17,20,20,0,0,1,1.12-3.06,10.2,10.2,0,0,1,1.47-2.37,2.34,2.34,0,0,1,1.77-1,1.58,1.58,0,0,1,1.22.58,1.92,1.92,0,0,1,.5.86l.65-1.29c.05-.19.15-.29.29-.29a.17.17,0,0,1,.14.07c.15.1.22.19.22.29v.14c-.19,1-.39,2.14-.58,3.53s-.33,2.69-.43,3.89-.14,2.23-.14,3.1q0,.49,0,1.62a3.37,3.37,0,0,0,.47,1.76.45.45,0,0,0,.36.22,1.13,1.13,0,0,0,.58-.26,4.79,4.79,0,0,0,1-1.08,24.6,24.6,0,0,0,1.48-2.34c.57-1,1.27-2.3,2.08-3.88l.29-.58a.69.69,0,0,1,.51-.14.57.57,0,0,1,.21.36.21.21,0,0,1-.07.14l-.29.5a47.59,47.59,0,0,1-3.53,6.2c-.91,1.24-1.65,1.87-2.23,1.87h-.14a1.78,1.78,0,0,1-.79-.58,3.43,3.43,0,0,1-.62-1.8c-.07-.77-.1-1.49-.1-2.16q0-.5,0-1.62c0-.74.11-1.69.25-2.84s.29-2.19.44-3.1a5.4,5.4,0,0,1-.36.87c-1.44,3.5-2.6,6.09-3.46,7.77s-1.58,2.52-2.16,2.52a.18.18,0,0,1-.11,0,.12.12,0,0,0-.11,0,1.14,1.14,0,0,1-.82-1.12c0-.55,0-.9,0-1A14,14,0,0,1,185.75,143.78Zm.5,2.95q.15.95.36,1.08c.19-.05.56-.55,1.12-1.51s1.11-2.06,1.69-3.31,1.11-2.45,1.62-3.6a17,17,0,0,0,.9-2.38v-.29a5.73,5.73,0,0,0-.07-.72,1.77,1.77,0,0,0-.36-.79,1,1,0,0,0-.72-.29,1.75,1.75,0,0,0-1.3.83,11.29,11.29,0,0,0-1.26,2.13,19.25,19.25,0,0,0-1.08,2.88,21,21,0,0,0-.68,3.16,10.86,10.86,0,0,0-.29,2.24A1.76,1.76,0,0,0,186.25,146.73Z"/><path class="cls-8" d="M198.63,146.08a43.29,43.29,0,0,1,.33-5.18,36.51,36.51,0,0,1,.93-5.08,6,6,0,0,1,1.41-3,.94.94,0,0,1,.72-.29,1,1,0,0,1,.57.21.43.43,0,0,1,.15.29.29.29,0,0,1-.08.22.28.28,0,0,1-.28.14.29.29,0,0,1-.22-.07H202a.29.29,0,0,0-.22.07,5,5,0,0,0-1.19,2.45,39,39,0,0,0-1.22,8.17c0,1,0,1.77,0,2.2,0,.86,0,1.58.08,2.16.23-.48.52-1.09.86-1.84s.69-1.55,1.08-2.41q2.88-6.12,4.57-9.14c1.13-2,2.1-3,2.92-3h.21c.53.19.84.88.94,2.05s.14,2.56.14,4.14v5c0,1.11,0,2.13.11,3.06a14.91,14.91,0,0,0,.33,2.34c.14.63.36,1,.64,1.08h.08c.23,0,.59-.33,1.08-1s1-1.52,1.58-2.52,1.12-2,1.62-3.1a23.56,23.56,0,0,0,1-2.45c.05-.19.15-.29.29-.29a.29.29,0,0,1,.22.08c.19,0,.29.14.29.28a.22.22,0,0,1-.08.15,21.49,21.49,0,0,1-.93,2.34,31.39,31.39,0,0,1-1.66,3.2,21.9,21.9,0,0,1-1.94,2.81c-.68.82-1.28,1.22-1.8,1.22q-1.23-.36-1.41-2.7c-.12-1.56-.18-3.34-.18-5.36v-4.46c0-.82,0-1.61,0-2.38a15.16,15.16,0,0,0-.18-1.94q-.15-.8-.36-.87h-.07c-.29,0-.72.42-1.3,1.26a34.45,34.45,0,0,0-1.87,3.13c-.68,1.25-1.32,2.57-2,4s-1.15,2.55-1.58,3.46c-.72,1.54-1.27,2.7-1.66,3.49a6.38,6.38,0,0,1-.93,1.55.29.29,0,0,1-.22.07h-.07c-.1,0-.19-.07-.29-.21a7.64,7.64,0,0,1-.29-2.52Z"/></g></g></svg>