<?xml version="1.0" standalone="no"?>
<!DOCTYPE svg PUBLIC "-//W3C//DTD SVG 20010904//EN"
 "http://www.w3.org/TR/2001/REC-SVG-20010904/DTD/svg10.dtd">
<svg version="1.0" xmlns="http://www.w3.org/2000/svg"
 width="1272.000000pt" height="1272.000000pt" viewBox="0 0 1272.000000 1272.000000"
 preserveAspectRatio="xMidYMid meet">
<metadata>
Created by potrace 1.11, written by Peter Selinger 2001-2013
</metadata>
<g transform="translate(0.000000,1272.000000) scale(0.100000,-0.100000)"
fill="#000000" stroke="none">
<path d="M5908 12715 c-2 -2 -70 -6 -153 -9 -82 -3 -179 -8 -215 -11 -36 -3
-94 -8 -130 -11 -36 -2 -90 -6 -120 -9 -58 -4 -146 -12 -239 -21 -31 -3 -73
-9 -93 -14 -23 -5 -38 -4 -38 1 0 6 -7 6 -17 0 -10 -5 -47 -11 -83 -15 -36 -3
-74 -8 -86 -10 -12 -2 -45 -7 -75 -11 -30 -3 -67 -8 -82 -11 -16 -3 -38 -7
-50 -9 -40 -6 -102 -16 -132 -22 -16 -3 -41 -7 -55 -9 -14 -1 -36 -5 -50 -8
-14 -3 -41 -9 -60 -12 -48 -9 -53 -10 -160 -34 -52 -11 -104 -22 -115 -24 -89
-15 -362 -90 -525 -143 -41 -14 -79 -26 -85 -27 -13 -4 -64 -24 -90 -35 -11
-5 -45 -18 -75 -29 -30 -11 -85 -34 -123 -51 -37 -17 -71 -31 -76 -31 -5 0
-14 -7 -21 -15 -7 -9 -19 -14 -27 -11 -7 3 -13 2 -13 -2 0 -5 -21 -18 -47 -31
-92 -45 -246 -154 -322 -230 -142 -140 -199 -256 -199 -410 0 -46 3 -94 8
-106 5 -14 4 -27 -3 -34 -7 -7 -8 -11 0 -11 6 0 11 -10 11 -22 1 -52 57 -223
114 -348 17 -36 31 -70 32 -75 1 -6 9 -21 19 -35 9 -13 17 -28 17 -33 0 -10
142 -245 188 -311 59 -84 136 -190 147 -202 5 -7 21 -26 35 -44 14 -17 32 -40
40 -50 8 -10 30 -36 48 -59 18 -22 45 -53 60 -70 15 -16 56 -62 92 -102 73
-81 252 -262 354 -356 l67 -63 -16 -30 c-8 -16 -14 -33 -13 -37 1 -4 -3 -30
-10 -58 -6 -27 -14 -61 -16 -75 -2 -14 -11 -65 -20 -115 -9 -49 -18 -101 -20
-115 -3 -14 -5 -25 -6 -25 -1 0 -3 -20 -6 -45 -5 -57 -11 -97 -17 -135 -3 -16
-8 -55 -11 -85 -4 -30 -9 -75 -12 -100 -7 -64 -11 -103 -19 -200 -3 -47 -8
-98 -10 -115 -6 -44 -18 -222 -19 -277 -1 -27 -3 -48 -6 -48 -3 0 -6 -35 -6
-78 -2 -111 -15 -325 -20 -334 -3 -5 0 -8 6 -8 6 0 8 -5 3 -12 -4 -7 -8 -38
-9 -68 -1 -30 -5 -154 -10 -275 -10 -288 -10 -1570 0 -1890 9 -291 13 -399 20
-550 3 -60 8 -162 11 -225 3 -63 8 -146 10 -185 3 -38 7 -110 10 -160 8 -133
13 -192 20 -275 4 -41 9 -100 11 -130 3 -50 7 -96 19 -205 2 -22 7 -69 10
-105 3 -36 8 -78 10 -95 6 -41 16 -122 21 -165 4 -41 23 -174 30 -210 3 -14 7
-43 10 -65 2 -22 7 -47 10 -55 3 -8 8 -28 10 -45 3 -16 7 -41 11 -55 3 -14 7
-31 9 -38 1 -6 -9 -15 -22 -18 -13 -3 -24 -9 -24 -13 0 -3 -14 -12 -30 -19
-17 -8 -36 -19 -43 -25 -6 -7 -29 -25 -50 -40 -50 -38 -209 -197 -277 -277
-82 -97 -84 -99 -141 -175 -29 -38 -56 -71 -61 -73 -4 -2 -8 -8 -8 -13 0 -5
-23 -40 -50 -78 -28 -38 -50 -73 -50 -79 0 -6 -4 -12 -9 -14 -8 -3 -65 -92
-113 -175 -10 -18 -28 -50 -40 -70 -37 -66 -118 -231 -118 -242 0 -6 -4 -11
-10 -11 -5 0 -10 -6 -10 -12 0 -7 -14 -47 -31 -88 -56 -139 -97 -275 -114
-383 -2 -15 -7 -33 -11 -39 -5 -7 -3 -8 5 -3 10 6 11 3 3 -11 -11 -23 -16
-135 -7 -164 3 -11 12 -20 20 -20 7 0 20 -6 27 -12 19 -19 126 -88 136 -88 4
0 24 -11 45 -25 20 -14 37 -23 37 -20 0 4 13 -3 29 -14 16 -12 32 -21 35 -21
3 0 44 -18 91 -40 47 -22 87 -40 90 -40 2 0 28 -11 57 -24 29 -13 71 -29 93
-36 22 -7 45 -15 50 -19 6 -3 13 -6 18 -7 4 -1 9 -3 12 -4 3 -1 8 -3 13 -4 4
-1 63 -20 132 -43 136 -44 257 -81 286 -88 11 -2 44 -11 76 -19 31 -8 67 -18
80 -20 12 -3 64 -15 113 -27 50 -11 97 -22 105 -24 148 -31 189 -40 240 -48
82 -15 96 -17 120 -22 14 -3 44 -8 66 -11 23 -2 50 -6 60 -8 31 -6 97 -16 129
-21 17 -2 62 -8 100 -14 143 -21 270 -35 400 -46 22 -2 60 -6 85 -9 41 -4 158
-14 270 -22 78 -5 230 -14 375 -21 183 -10 1069 -9 1255 0 280 15 417 24 610
42 30 3 80 8 110 10 30 3 73 8 94 10 21 3 62 7 90 10 59 6 121 14 156 20 14 2
45 7 70 10 67 9 301 44 330 50 14 3 39 7 55 10 17 3 41 8 55 10 14 3 36 7 50
10 14 3 36 7 50 10 14 2 39 7 55 10 17 2 44 9 62 14 17 5 34 7 37 3 3 -3 6 -1
6 4 0 5 10 9 23 10 12 0 36 4 52 8 17 4 44 10 60 13 17 3 38 9 48 14 9 5 17 7
17 5 0 -3 12 -1 26 5 15 5 43 12 63 15 20 3 44 10 54 15 9 5 17 7 17 4 0 -2
17 2 38 10 20 8 48 16 62 19 14 2 83 23 155 46 71 23 134 43 140 44 5 1 19 7
30 13 26 13 128 48 137 45 3 -1 11 5 18 13 6 7 18 11 26 8 8 -3 14 -1 14 5 0
5 10 12 23 16 13 3 50 18 83 33 32 15 61 28 64 28 21 4 213 109 318 175 l73
45 -5 90 c-3 50 -7 104 -10 122 -8 53 -44 196 -60 240 -8 22 -12 44 -9 47 4 3
0 6 -7 6 -7 0 -11 3 -7 6 3 4 0 19 -9 35 -8 16 -15 31 -15 34 0 16 -61 150
-114 255 -80 156 -90 175 -97 178 -5 2 -8 10 -8 18 0 8 -5 14 -10 14 -6 0 -9
3 -8 7 1 5 -11 28 -26 53 -44 70 -160 243 -173 260 -11 13 -41 53 -87 115 -27
35 -120 149 -156 190 -54 61 -241 245 -250 245 -4 0 -20 11 -36 25 -16 14 -49
35 -74 47 -25 13 -48 27 -51 31 -3 4 0 31 7 58 7 28 16 69 19 92 4 23 8 44 10
47 1 3 6 28 9 55 4 28 9 61 11 75 6 29 14 87 20 145 3 22 7 56 10 75 9 67 15
115 21 180 6 70 9 94 18 180 3 30 8 87 11 125 3 39 8 99 11 135 3 36 7 92 9
125 2 33 6 89 9 125 6 73 12 175 22 360 4 69 8 154 10 190 2 36 4 79 3 95 -1
17 -1 35 0 40 3 35 11 236 15 385 3 96 6 175 7 175 7 0 6 1647 -1 1678 -5 22
-4 37 2 37 5 0 6 5 3 11 -4 5 -9 74 -11 152 -4 165 -17 459 -28 627 -14 218
-19 278 -21 310 -2 19 -6 73 -9 120 -4 47 -8 99 -10 115 -3 17 -8 57 -11 90
-3 33 -8 74 -10 91 -2 17 -7 57 -11 90 -3 32 -8 70 -10 84 -2 14 -6 48 -9 75
-5 49 -9 73 -20 125 -3 14 -7 43 -10 65 -3 22 -9 57 -14 77 -5 20 -6 39 -4 42
3 3 2 13 -2 23 -9 21 -7 14 -30 113 -9 41 -19 85 -22 97 -4 19 8 35 63 85 108
100 404 401 404 412 0 2 20 26 45 52 25 25 45 49 45 53 0 3 18 26 40 51 22 25
43 50 47 55 5 6 21 28 38 50 37 51 47 62 65 84 22 24 114 163 122 184 4 9 12
17 18 17 5 0 10 4 10 9 0 5 25 51 56 102 31 52 57 98 58 104 1 5 12 25 24 44
11 19 19 38 16 43 -3 4 -1 8 4 8 5 0 12 8 15 18 3 9 20 51 37 92 28 65 57 149
60 172 1 4 6 22 11 40 6 18 13 47 15 63 3 17 9 44 13 60 19 78 11 227 -16 295
-3 8 -7 21 -9 28 -11 54 -157 231 -254 306 -90 71 -272 174 -430 244 -135 60
-400 154 -525 187 -27 8 -84 23 -125 34 -41 12 -88 23 -104 26 -16 3 -32 8
-36 10 -4 2 -22 7 -41 10 -46 9 -64 13 -64 15 0 2 -1 2 -155 33 -69 14 -138
28 -155 31 -16 2 -30 5 -30 6 0 1 -13 3 -30 5 -16 2 -41 6 -55 9 -13 3 -42 8
-65 11 -22 3 -53 8 -70 12 -16 3 -41 7 -55 9 -45 4 -115 14 -140 19 -14 3 -52
7 -85 10 -33 3 -76 8 -95 11 -96 15 -212 27 -272 28 -27 1 -48 3 -48 6 0 3
-19 6 -43 6 -23 1 -76 4 -117 8 -68 5 -134 10 -335 22 -83 5 -1092 13 -1097 9z"/>
</g>
</svg>
